<?xml version="1.0" standalone="no"?>
<!DOCTYPE svg PUBLIC "-//W3C//DTD SVG 20010904//EN"
 "http://www.w3.org/TR/2001/REC-SVG-20010904/DTD/svg10.dtd">
<svg version="1.0" xmlns="http://www.w3.org/2000/svg"
 width="480.000000pt" height="480.000000pt" viewBox="0 0 480.000000 480.000000"
 preserveAspectRatio="xMidYMid meet">

<g transform="translate(0.000000,480.000000) scale(0.100000,-0.100000)"
fill="#000000" stroke="none">
<path d="M2303 3042 c-10 -6 -10 -13 2 -29 11 -16 30 -22 90 -27 111 -10 212
-39 323 -93 77 -38 96 -44 86 -28 -36 54 -165 128 -265 154 -86 21 -219 34
-236 23z"/>
<path d="M2085 2996 c-55 -20 -95 -46 -95 -61 0 -20 15 -19 88 6 61 20 75 36
50 56 -9 7 -23 7 -43 -1z"/>
<path d="M2182 2989 c2 -6 7 -10 11 -10 4 1 14 1 23 1 8 0 12 5 9 10 -8 13
-48 13 -43 -1z"/>
<path d="M2962 2693 c2 -5 11 -24 20 -43 9 -19 25 -55 37 -80 11 -25 25 -74
32 -110 6 -36 15 -73 20 -82 11 -22 12 -48 0 -48 -4 0 -14 -28 -21 -62 -23
-118 -69 -224 -132 -304 -32 -42 -44 -64 -38 -72 7 -9 7 -9 -2 -2 -8 6 -24 -2
-52 -28 -23 -20 -40 -40 -38 -45 1 -5 -2 -6 -7 -3 -5 3 -20 -3 -35 -15 -42
-33 -166 -86 -257 -110 -99 -26 -222 -31 -297 -12 -30 7 -58 11 -63 7 -5 -3
-9 0 -9 7 0 8 -4 8 -15 -1 -12 -10 -15 -9 -15 5 0 13 -6 16 -26 11 -17 -5 -23
-3 -19 4 3 5 -6 15 -22 20 -15 6 -36 15 -46 20 -20 12 -37 5 -37 -15 0 -22 34
-37 50 -22 10 10 12 8 6 -7 -10 -28 11 -48 36 -35 15 8 19 8 14 0 -8 -13 54
-53 71 -46 7 2 12 -1 10 -7 -1 -7 3 -12 8 -13 6 0 16 -4 23 -9 7 -4 30 -9 50
-11 41 -2 74 -14 83 -28 9 -13 129 -18 129 -5 0 6 6 6 15 -2 8 -6 19 -9 26 -5
6 4 28 9 49 10 47 4 150 36 150 47 0 4 9 8 21 8 11 0 17 5 14 10 -3 6 3 10 13
10 11 0 25 7 32 15 7 8 18 15 25 15 19 0 165 146 165 164 0 9 6 16 14 16 19 0
67 87 68 123 1 15 5 27 10 27 4 0 17 15 28 33 15 23 19 41 14 67 -3 19 -2 32
2 28 27 -27 59 166 34 211 -8 17 -9 26 -1 34 16 16 13 45 -6 65 -10 10 -19 27
-21 37 -10 59 -10 85 -2 90 5 3 7 12 3 21 -4 12 -8 12 -21 2 -13 -11 -14 -10
-4 7 8 16 6 26 -9 45 -10 14 -19 21 -19 15 0 -5 -9 5 -20 23 -11 17 -25 32
-30 32 -6 0 -10 -3 -8 -7z m68 -73 c0 -5 -2 -10 -4 -10 -3 0 -8 5 -11 10 -3 6
-1 10 4 10 6 0 11 -4 11 -10z m60 -370 c-8 -5 -17 -7 -19 -4 -3 3 1 9 9 14 8
5 17 7 19 4 3 -3 -1 -9 -9 -14z m-943 -585 c0 -8 -4 -15 -9 -15 -10 0 -11 14
-1 23 9 10 10 9 10 -8z"/>
<path d="M1700 1983 c0 -5 5 -15 10 -23 8 -12 10 -11 10 8 0 12 -4 22 -10 22
-5 0 -10 -3 -10 -7z"/>
</g>
</svg>
